<svg xmlns="http://www.w3.org/2000/svg" xmlns:xlink="http://www.w3.org/1999/xlink" width="20" height="20" zoomAndPan="magnify" viewBox="0 0 375 374.999991" preserveAspectRatio="xMidYMid meet" version="1.0"><path fill="#dd7732" d="M 4.488281 204.648438 C 15.804688 227.996094 27.121094 251.34375 38.433594 274.691406 C 49.75 298.039062 61.871094 321.027344 72.558594 344.554688 C 76.058594 352.367188 85.21875 357.035156 93.210938 358.113281 C 101.832031 359.28125 110.8125 356.855469 117.007812 350.300781 C 144.664062 321.296875 170.886719 290.585938 196.839844 259.964844 C 222.878906 229.164062 249.371094 198.722656 275.683594 168.191406 C 291.847656 149.511719 307.742188 130.5625 322.828125 110.988281 C 321.300781 112.964844 319.773438 114.9375 318.246094 116.914062 C 326.597656 106.046875 335.128906 95.273438 343.570312 84.496094 C 352.820312 72.824219 361.351562 60.519531 370.0625 48.398438 C 375 41.574219 373.023438 29.808594 366.917969 24.242188 C 360.902344 18.765625 349.855469 15.710938 342.761719 21.097656 C 331.449219 29.71875 319.773438 38.160156 308.996094 47.5 C 299.570312 55.761719 290.140625 64.023438 280.800781 72.285156 C 261.675781 89.257812 243.804688 107.484375 226.382812 126.164062 C 191.988281 163.070312 158.496094 201.144531 127.515625 241.105469 C 117.457031 254.039062 107.488281 266.96875 97.699219 279.988281 C 88.8125 291.753906 80.550781 303.695312 72.558594 316.089844 C 88.8125 316.089844 105.15625 316.089844 121.40625 316.089844 C 106.589844 294.894531 93.121094 272.625 78.933594 251.074219 C 64.746094 229.253906 50.558594 207.609375 36.367188 185.96875 C 31.070312 177.886719 19.84375 173.757812 11.136719 179.324219 C 2.246094 185.160156 0 195.308594 4.488281 204.648438 Z M 4.488281 204.648438 " fill-opacity="1" fill-rule="nonzero"/></svg>