<svg xmlns="http://www.w3.org/2000/svg" xmlns:xlink="http://www.w3.org/1999/xlink" zoomAndPan="magnify" preserveAspectRatio="xMidYMid meet" version="1.0" viewBox="56.18 33 112.82 84"><defs><g/><clipPath id="12cbd1df6c"><path d="M 77 62 L 133 62 L 133 117 L 77 117 Z M 77 62 " clip-rule="nonzero"/></clipPath><clipPath id="02ac3632e3"><path d="M 121.535156 62.042969 L 132.683594 105.613281 L 89.113281 116.765625 L 77.964844 73.191406 Z M 121.535156 62.042969 " clip-rule="nonzero"/></clipPath><clipPath id="d9e6e5a89b"><path d="M 121.535156 62.042969 L 132.683594 105.613281 L 89.113281 116.765625 L 77.964844 73.191406 Z M 121.535156 62.042969 " clip-rule="nonzero"/></clipPath><clipPath id="6147eb8a5e"><path d="M 93 73 L 99 73 L 99 81 L 93 81 Z M 93 73 " clip-rule="nonzero"/></clipPath><clipPath id="ab70c188cd"><path d="M 93.453125 73.652344 L 99.765625 74.042969 L 99.375 80.355469 L 93.0625 79.964844 Z M 93.453125 73.652344 " clip-rule="nonzero"/></clipPath><clipPath id="6b8c44ecfb"><path d="M 96.308594 73.828125 C 97.0625 73.875 97.769531 74.222656 98.273438 74.789062 C 98.773438 75.359375 99.03125 76.101562 98.980469 76.859375 L 98.949219 77.390625 C 98.902344 78.148438 98.558594 78.855469 97.988281 79.355469 C 97.421875 79.859375 96.675781 80.113281 95.917969 80.066406 C 95.164062 80.019531 94.457031 79.671875 93.953125 79.105469 C 93.453125 78.539062 93.195312 77.792969 93.242188 77.035156 L 93.277344 76.503906 C 93.324219 75.75 93.667969 75.042969 94.238281 74.539062 C 94.804688 74.039062 95.550781 73.78125 96.308594 73.828125 " clip-rule="nonzero"/></clipPath><clipPath id="da580d72d3"><path d="M 95 82 L 102 82 L 102 89 L 95 89 Z M 95 82 " clip-rule="nonzero"/></clipPath><clipPath id="d2e087d961"><path d="M 95.890625 82.144531 L 102.203125 82.539062 L 101.808594 88.851562 L 95.496094 88.457031 Z M 95.890625 82.144531 " clip-rule="nonzero"/></clipPath><clipPath id="f40093481d"><path d="M 98.742188 82.320312 C 99.5 82.367188 100.207031 82.714844 100.707031 83.28125 C 101.210938 83.851562 101.464844 84.597656 101.417969 85.351562 L 101.386719 85.882812 C 101.339844 86.640625 100.992188 87.347656 100.425781 87.847656 C 99.855469 88.351562 99.109375 88.605469 98.355469 88.558594 C 97.597656 88.511719 96.890625 88.167969 96.390625 87.597656 C 95.886719 87.03125 95.632812 86.285156 95.679688 85.527344 L 95.710938 84.996094 C 95.757812 84.242188 96.105469 83.535156 96.671875 83.03125 C 97.242188 82.53125 97.984375 82.273438 98.742188 82.320312 " clip-rule="nonzero"/></clipPath><clipPath id="a5b850c45a"><path d="M 99 90 L 106 90 L 106 97 L 99 97 Z M 99 90 " clip-rule="nonzero"/></clipPath><clipPath id="7aceedb8f2"><path d="M 100.039062 90.421875 L 106.351562 90.8125 L 105.960938 97.125 L 99.648438 96.734375 Z M 100.039062 90.421875 " clip-rule="nonzero"/></clipPath><clipPath id="affc24d817"><path d="M 102.894531 90.597656 C 103.652344 90.644531 104.359375 90.992188 104.859375 91.558594 C 105.359375 92.128906 105.617188 92.871094 105.570312 93.628906 L 105.535156 94.160156 C 105.488281 94.917969 105.144531 95.625 104.574219 96.125 C 104.007812 96.628906 103.261719 96.882812 102.507812 96.835938 C 101.75 96.789062 101.042969 96.445312 100.539062 95.875 C 100.039062 95.308594 99.785156 94.5625 99.832031 93.804688 L 99.863281 93.273438 C 99.910156 92.519531 100.257812 91.8125 100.824219 91.308594 C 101.394531 90.808594 102.136719 90.550781 102.894531 90.597656 " clip-rule="nonzero"/></clipPath><clipPath id="b51917287b"><path d="M 105 99 L 111 99 L 111 106 L 105 106 Z M 105 99 " clip-rule="nonzero"/></clipPath><clipPath id="e631739375"><path d="M 105.238281 98.988281 L 111.550781 99.382812 L 111.15625 105.695312 L 104.84375 105.300781 Z M 105.238281 98.988281 " clip-rule="nonzero"/></clipPath><clipPath id="0788d7b1be"><path d="M 108.089844 99.167969 C 108.847656 99.214844 109.554688 99.558594 110.054688 100.128906 C 110.558594 100.695312 110.8125 101.441406 110.765625 102.199219 L 110.730469 102.730469 C 110.683594 103.484375 110.339844 104.191406 109.769531 104.695312 C 109.203125 105.195312 108.457031 105.453125 107.703125 105.40625 C 106.945312 105.355469 106.238281 105.011719 105.734375 104.441406 C 105.234375 103.875 104.980469 103.128906 105.027344 102.375 L 105.058594 101.84375 C 105.105469 101.085938 105.453125 100.378906 106.019531 99.878906 C 106.589844 99.375 107.332031 99.121094 108.089844 99.167969 " clip-rule="nonzero"/></clipPath><clipPath id="cfcfe9266e"><path d="M 85 77 L 92 77 L 92 84 L 85 84 Z M 85 77 " clip-rule="nonzero"/></clipPath><clipPath id="734d97a2da"><path d="M 85.777344 76.851562 L 92.085938 77.339844 L 91.59375 83.644531 L 85.289062 83.15625 Z M 85.777344 76.851562 " clip-rule="nonzero"/></clipPath><clipPath id="6710660b52"><path d="M 88.628906 77.074219 C 89.382812 77.132812 90.085938 77.488281 90.578125 78.0625 C 91.070312 78.640625 91.316406 79.386719 91.257812 80.144531 L 91.214844 80.671875 C 91.15625 81.429688 90.800781 82.132812 90.226562 82.625 C 89.648438 83.117188 88.902344 83.363281 88.144531 83.304688 C 87.390625 83.246094 86.6875 82.886719 86.195312 82.3125 C 85.703125 81.734375 85.457031 80.988281 85.515625 80.230469 L 85.558594 79.703125 C 85.617188 78.945312 85.972656 78.242188 86.546875 77.75 C 87.125 77.257812 87.871094 77.015625 88.628906 77.074219 " clip-rule="nonzero"/></clipPath><clipPath id="0e32d15858"><path d="M 87 85 L 94 85 L 94 92 L 87 92 Z M 87 85 " clip-rule="nonzero"/></clipPath><clipPath id="3be56902f2"><path d="M 88.085938 85.378906 L 94.390625 85.867188 L 93.902344 92.175781 L 87.59375 91.6875 Z M 88.085938 85.378906 " clip-rule="nonzero"/></clipPath><clipPath id="27f24fe6e0"><path d="M 90.933594 85.601562 C 91.691406 85.660156 92.390625 86.015625 92.882812 86.59375 C 93.378906 87.167969 93.621094 87.917969 93.5625 88.671875 L 93.523438 89.203125 C 93.464844 89.957031 93.105469 90.660156 92.53125 91.152344 C 91.957031 91.644531 91.207031 91.890625 90.449219 91.832031 C 89.695312 91.773438 88.992188 91.417969 88.5 90.839844 C 88.007812 90.265625 87.761719 89.515625 87.820312 88.761719 L 87.863281 88.230469 C 87.921875 87.472656 88.277344 86.773438 88.855469 86.28125 C 89.429688 85.785156 90.179688 85.542969 90.933594 85.601562 " clip-rule="nonzero"/></clipPath><clipPath id="738783748b"><path d="M 91 93 L 98 93 L 98 101 L 91 101 Z M 91 93 " clip-rule="nonzero"/></clipPath><clipPath id="88dd00d836"><path d="M 92.109375 93.71875 L 98.414062 94.207031 L 97.925781 100.515625 L 91.621094 100.027344 Z M 92.109375 93.71875 " clip-rule="nonzero"/></clipPath><clipPath id="90e02cf1e7"><path d="M 94.957031 93.941406 C 95.714844 94 96.417969 94.355469 96.910156 94.933594 C 97.402344 95.507812 97.648438 96.257812 97.589844 97.011719 L 97.546875 97.542969 C 97.488281 98.296875 97.132812 99 96.554688 99.492188 C 95.980469 99.984375 95.230469 100.230469 94.476562 100.171875 C 93.71875 100.113281 93.019531 99.757812 92.523438 99.179688 C 92.03125 98.605469 91.789062 97.855469 91.847656 97.101562 L 91.886719 96.570312 C 91.945312 95.8125 92.304688 95.113281 92.878906 94.621094 C 93.453125 94.125 94.203125 93.882812 94.957031 93.941406 " clip-rule="nonzero"/></clipPath><clipPath id="8479339380"><path d="M 96 102 L 103 102 L 103 109 L 96 109 Z M 96 102 " clip-rule="nonzero"/></clipPath><clipPath id="cf8947133a"><path d="M 97.171875 102.367188 L 103.480469 102.855469 L 102.988281 109.160156 L 96.683594 108.671875 Z M 97.171875 102.367188 " clip-rule="nonzero"/></clipPath><clipPath id="568e05c808"><path d="M 100.023438 102.585938 C 100.777344 102.644531 101.480469 103.003906 101.972656 103.578125 C 102.464844 104.152344 102.710938 104.902344 102.652344 105.660156 L 102.609375 106.1875 C 102.550781 106.945312 102.195312 107.644531 101.621094 108.140625 C 101.042969 108.632812 100.296875 108.875 99.539062 108.816406 C 98.785156 108.757812 98.082031 108.402344 97.589844 107.828125 C 97.097656 107.25 96.851562 106.503906 96.910156 105.746094 L 96.953125 105.214844 C 97.011719 104.460938 97.367188 103.757812 97.941406 103.265625 C 98.519531 102.773438 99.265625 102.527344 100.023438 102.585938 " clip-rule="nonzero"/></clipPath><clipPath id="7673e879e3"><path d="M 97 33 L 169 33 L 169 106 L 97 106 Z M 97 33 " clip-rule="nonzero"/></clipPath><clipPath id="bd8bfd815e"><path d="M 134.300781 33.234375 L 168.695312 62.214844 L 132.019531 105.746094 L 97.625 76.765625 Z M 134.300781 33.234375 " clip-rule="nonzero"/></clipPath><clipPath id="ccadc684e3"><path d="M 134.300781 33.234375 L 168.695312 62.214844 L 132.160156 105.582031 L 97.765625 76.601562 Z M 134.300781 33.234375 " clip-rule="nonzero"/></clipPath><clipPath id="001934983e"><path d="M 56.179688 62.789062 L 101.15625 62.789062 L 101.15625 107.765625 L 56.179688 107.765625 Z M 56.179688 62.789062 " clip-rule="nonzero"/></clipPath><clipPath id="5e063352ec"><path d="M 78.667969 62.789062 C 66.25 62.789062 56.179688 72.859375 56.179688 85.277344 C 56.179688 97.695312 66.25 107.765625 78.667969 107.765625 C 91.089844 107.765625 101.15625 97.695312 101.15625 85.277344 C 101.15625 72.859375 91.089844 62.789062 78.667969 62.789062 " clip-rule="nonzero"/></clipPath><clipPath id="36d279428d"><path d="M 65.371094 75.398438 L 74.316406 75.398438 L 74.316406 84.347656 L 65.371094 84.347656 Z M 65.371094 75.398438 " clip-rule="nonzero"/></clipPath><clipPath id="1c8fa309a7"><path d="M 69.84375 75.398438 C 67.371094 75.398438 65.371094 77.402344 65.371094 79.875 C 65.371094 82.34375 67.371094 84.347656 69.84375 84.347656 C 72.316406 84.347656 74.316406 82.34375 74.316406 79.875 C 74.316406 77.402344 72.316406 75.398438 69.84375 75.398438 " clip-rule="nonzero"/></clipPath><clipPath id="776f04b75d"><path d="M 86.292969 75.398438 L 95.242188 75.398438 L 95.242188 84.347656 L 86.292969 84.347656 Z M 86.292969 75.398438 " clip-rule="nonzero"/></clipPath><clipPath id="cc0da94db7"><path d="M 90.765625 75.398438 C 88.296875 75.398438 86.292969 77.402344 86.292969 79.875 C 86.292969 82.34375 88.296875 84.347656 90.765625 84.347656 C 93.238281 84.347656 95.242188 82.34375 95.242188 79.875 C 95.242188 77.402344 93.238281 75.398438 90.765625 75.398438 " clip-rule="nonzero"/></clipPath><clipPath id="69567dd3cd"><path d="M 68.882812 78.945312 L 74.285156 78.945312 L 74.285156 84.347656 L 68.882812 84.347656 Z M 68.882812 78.945312 " clip-rule="nonzero"/></clipPath><clipPath id="fe0c501eb3"><path d="M 71.585938 78.945312 C 70.09375 78.945312 68.882812 80.152344 68.882812 81.644531 C 68.882812 83.136719 70.09375 84.347656 71.585938 84.347656 C 73.078125 84.347656 74.285156 83.136719 74.285156 81.644531 C 74.285156 80.152344 73.078125 78.945312 71.585938 78.945312 " clip-rule="nonzero"/></clipPath><clipPath id="18e0dbc729"><path d="M 89.835938 78.945312 L 95.242188 78.945312 L 95.242188 84.347656 L 89.835938 84.347656 Z M 89.835938 78.945312 " clip-rule="nonzero"/></clipPath><clipPath id="da49e8f39e"><path d="M 92.539062 78.945312 C 91.046875 78.945312 89.835938 80.152344 89.835938 81.644531 C 89.835938 83.136719 91.046875 84.347656 92.539062 84.347656 C 94.03125 84.347656 95.242188 83.136719 95.242188 81.644531 C 95.242188 80.152344 94.03125 78.945312 92.539062 78.945312 " clip-rule="nonzero"/></clipPath><clipPath id="b9982e24b5"><path d="M 72.332031 89.402344 L 86.75 89.402344 L 86.75 103.820312 L 72.332031 103.820312 Z M 72.332031 89.402344 " clip-rule="nonzero"/></clipPath><clipPath id="d88b4a8b62"><path d="M 79.539062 89.402344 C 75.558594 89.402344 72.332031 92.628906 72.332031 96.609375 C 72.332031 100.589844 75.558594 103.820312 79.539062 103.820312 C 83.519531 103.820312 86.75 100.589844 86.75 96.609375 C 86.75 92.628906 83.519531 89.402344 79.539062 89.402344 " clip-rule="nonzero"/></clipPath><clipPath id="9647bfd389"><path d="M 76 75 L 83 75 L 83 99 L 76 99 Z M 76 75 " clip-rule="nonzero"/></clipPath><clipPath id="62b5d38e27"><path d="M 76.546875 98.550781 L 75.683594 76.082031 L 82.707031 75.8125 L 83.570312 98.28125 Z M 76.546875 98.550781 " clip-rule="nonzero"/></clipPath><clipPath id="2beb033176"><path d="M 76.117188 87.316406 C 75.878906 81.109375 77.21875 76.023438 79.113281 75.949219 C 81.003906 75.875 82.730469 80.847656 82.96875 87.054688 C 83.207031 93.257812 81.867188 98.347656 79.972656 98.421875 C 78.082031 98.492188 76.355469 93.523438 76.117188 87.316406 " clip-rule="nonzero"/></clipPath><clipPath id="025b176e0f"><path d="M 75.683594 73.074219 L 83.414062 73.074219 L 83.414062 92 L 75.683594 92 Z M 75.683594 73.074219 " clip-rule="nonzero"/></clipPath><clipPath id="b0dfedf415"><path d="M 79.539062 73.074219 C 80.5625 73.074219 81.542969 73.480469 82.269531 74.203125 C 82.992188 74.925781 83.398438 75.910156 83.398438 76.933594 L 83.398438 87.65625 C 83.398438 88.679688 82.992188 89.660156 82.269531 90.382812 C 81.542969 91.105469 80.5625 91.511719 79.539062 91.511719 C 78.515625 91.511719 77.535156 91.105469 76.8125 90.382812 C 76.089844 89.660156 75.683594 88.679688 75.683594 87.65625 L 75.683594 76.933594 C 75.683594 75.910156 76.089844 74.925781 76.8125 74.203125 C 77.535156 73.480469 78.515625 73.074219 79.539062 73.074219 " clip-rule="nonzero"/></clipPath><clipPath id="d64ed0b143"><path d="M 74.984375 100.757812 L 84.273438 100.757812 L 84.273438 106.949219 L 74.984375 106.949219 Z M 74.984375 100.757812 " clip-rule="nonzero"/></clipPath><clipPath id="d1bd74acf0"><path d="M 79.539062 100.757812 C 77.023438 100.757812 74.984375 102.125 74.984375 103.816406 C 74.984375 105.507812 77.023438 106.878906 79.539062 106.878906 C 82.054688 106.878906 84.097656 105.507812 84.097656 103.816406 C 84.097656 102.125 82.054688 100.757812 79.539062 100.757812 " clip-rule="nonzero"/></clipPath><clipPath id="82e7a2bb63"><path d="M 68.882812 103.019531 L 88.964844 103.019531 L 88.964844 107.554688 L 68.882812 107.554688 Z M 68.882812 103.019531 " clip-rule="nonzero"/></clipPath><clipPath id="429f57a148"><path d="M 78.625 103.019531 C 73.242188 103.019531 68.882812 104 68.882812 105.207031 C 68.882812 106.414062 73.242188 107.394531 78.625 107.394531 C 84.003906 107.394531 88.367188 106.414062 88.367188 105.207031 C 88.367188 104 84.003906 103.019531 78.625 103.019531 " clip-rule="nonzero"/></clipPath><clipPath id="0490373043"><path d="M 99.996094 69.949219 L 106 69.949219 L 106 76.273438 L 99.996094 76.273438 Z M 99.996094 69.949219 " clip-rule="nonzero"/></clipPath><clipPath id="51208eaa0a"><path d="M 102.855469 69.949219 C 103.613281 69.949219 104.339844 70.25 104.878906 70.789062 C 105.414062 71.324219 105.714844 72.050781 105.714844 72.808594 L 105.714844 73.339844 C 105.714844 74.097656 105.414062 74.824219 104.878906 75.363281 C 104.339844 75.898438 103.613281 76.199219 102.855469 76.199219 C 102.097656 76.199219 101.371094 75.898438 100.835938 75.363281 C 100.296875 74.824219 99.996094 74.097656 99.996094 73.339844 L 99.996094 72.808594 C 99.996094 72.050781 100.296875 71.324219 100.835938 70.789062 C 101.371094 70.25 102.097656 69.949219 102.855469 69.949219 " clip-rule="nonzero"/></clipPath><clipPath id="06c14d08f1"><path d="M 102.957031 78.273438 L 109 78.273438 L 109 84.601562 L 102.957031 84.601562 Z M 102.957031 78.273438 " clip-rule="nonzero"/></clipPath><clipPath id="2868b6db55"><path d="M 105.8125 78.273438 C 106.570312 78.273438 107.300781 78.574219 107.835938 79.113281 C 108.371094 79.648438 108.671875 80.375 108.671875 81.132812 L 108.671875 81.664062 C 108.671875 82.421875 108.371094 83.152344 107.835938 83.6875 C 107.300781 84.222656 106.570312 84.523438 105.8125 84.523438 C 105.054688 84.523438 104.328125 84.222656 103.792969 83.6875 C 103.257812 83.152344 102.957031 82.421875 102.957031 81.664062 L 102.957031 81.132812 C 102.957031 80.375 103.257812 79.648438 103.792969 79.113281 C 104.328125 78.574219 105.054688 78.273438 105.8125 78.273438 " clip-rule="nonzero"/></clipPath><clipPath id="772eab109f"><path d="M 107.613281 86.277344 L 113.9375 86.277344 L 113.9375 92.601562 L 107.613281 92.601562 Z M 107.613281 86.277344 " clip-rule="nonzero"/></clipPath><clipPath id="316b131dcf"><path d="M 110.472656 86.277344 C 111.230469 86.277344 111.957031 86.578125 112.492188 87.117188 C 113.027344 87.652344 113.328125 88.378906 113.328125 89.136719 L 113.328125 89.667969 C 113.328125 90.425781 113.027344 91.152344 112.492188 91.691406 C 111.957031 92.226562 111.230469 92.527344 110.472656 92.527344 C 109.714844 92.527344 108.984375 92.226562 108.449219 91.691406 C 107.914062 91.152344 107.613281 90.425781 107.613281 89.667969 L 107.613281 89.136719 C 107.613281 88.378906 107.914062 87.652344 108.449219 87.117188 C 108.984375 86.578125 109.714844 86.277344 110.472656 86.277344 " clip-rule="nonzero"/></clipPath><clipPath id="02ff9a42e7"><path d="M 113.328125 94.507812 L 119 94.507812 L 119 100.832031 L 113.328125 100.832031 Z M 113.328125 94.507812 " clip-rule="nonzero"/></clipPath><clipPath id="6985044140"><path d="M 116.1875 94.507812 C 116.945312 94.507812 117.671875 94.808594 118.210938 95.34375 C 118.746094 95.882812 119.046875 96.609375 119.046875 97.367188 L 119.046875 97.898438 C 119.046875 98.65625 118.746094 99.382812 118.210938 99.917969 C 117.671875 100.457031 116.945312 100.757812 116.1875 100.757812 C 115.429688 100.757812 114.703125 100.457031 114.167969 99.917969 C 113.632812 99.382812 113.328125 98.65625 113.328125 97.898438 L 113.328125 97.367188 C 113.328125 96.609375 113.632812 95.882812 114.167969 95.34375 C 114.703125 94.808594 115.429688 94.507812 116.1875 94.507812 " clip-rule="nonzero"/></clipPath><clipPath id="1b20fcba60"><path d="M 110 38 L 164 38 L 164 92 L 110 92 Z M 110 38 " clip-rule="nonzero"/></clipPath><clipPath id="2a1ddd44bf"><path d="M 134.96875 38.179688 L 163.988281 62.628906 L 139.085938 92.1875 L 110.066406 67.738281 Z M 134.96875 38.179688 " clip-rule="nonzero"/></clipPath><clipPath id="13249e6911"><path d="M 134.96875 38.179688 L 163.761719 62.433594 L 139.261719 91.511719 L 110.46875 67.257812 Z M 134.96875 38.179688 " clip-rule="nonzero"/></clipPath><clipPath id="86ab846333"><path d="M 110 67 L 141 67 L 141 101 L 110 101 Z M 110 67 " clip-rule="nonzero"/></clipPath><clipPath id="235f3190e6"><path d="M 104.15625 72.503906 L 116.367188 61.914062 L 141.234375 90.578125 L 129.023438 101.171875 Z M 104.15625 72.503906 " clip-rule="nonzero"/></clipPath><clipPath id="68f10872d2"><path d="M 110.191406 67.269531 L 140.726562 90.289062 L 128.660156 100.753906 L 110.191406 67.269531 " clip-rule="nonzero"/></clipPath><clipPath id="efe1f2698d"><path d="M 110 59 L 132 59 L 132 79 L 110 79 Z M 110 59 " clip-rule="nonzero"/></clipPath><clipPath id="2fc2d60c10"><path d="M 110.476562 68.054688 L 117.355469 59.160156 L 131.808594 70.339844 L 124.925781 79.230469 Z M 110.476562 68.054688 " clip-rule="nonzero"/></clipPath><clipPath id="2700728078"><path d="M 110.476562 68.054688 L 117.234375 59.316406 L 131.304688 70.199219 L 124.546875 78.9375 Z M 110.476562 68.054688 " clip-rule="nonzero"/></clipPath></defs><g clip-path="url(#12cbd1df6c)"><g clip-path="url(#02ac3632e3)"><g clip-path="url(#d9e6e5a89b)"><path fill="#d9d9d9" d="M 121.535156 62.042969 L 132.683594 105.613281 L 89.113281 116.765625 L 77.964844 73.191406 Z M 121.535156 62.042969 " fill-opacity="1" fill-rule="nonzero"/></g></g></g><path stroke-linecap="butt" transform="matrix(-0.274271, -0.698373, 0.697722, -0.274015, 88.181795, 100.751406)" fill="none" stroke-linejoin="miter" d="M -0.000120498 2.001223 L 66.952416 2.001004 " stroke="#000000" stroke-width="4" stroke-opacity="1" stroke-miterlimit="4"/><path stroke-linecap="butt" transform="matrix(0.139111, -0.737291, 0.736603, 0.138982, 74.281547, 100.195172)" fill="none" stroke-linejoin="miter" d="M 0.0004179 1.998771 L 66.953296 2.002154 " stroke="#000000" stroke-width="4" stroke-opacity="1" stroke-miterlimit="4"/><path stroke-linecap="butt" transform="matrix(-0.203231, -0.722251, 0.721577, -0.203042, 87.873142, 100.751221)" fill="none" stroke-linejoin="miter" d="M 0.00174094 2.000642 L 66.95238 2.002029 " stroke="#000000" stroke-width="4" stroke-opacity="1" stroke-miterlimit="4"/><g clip-path="url(#6147eb8a5e)"><g clip-path="url(#ab70c188cd)"><g clip-path="url(#6b8c44ecfb)"><path fill="#a6a6a6" d="M 93.453125 73.652344 L 99.066406 74 L 98.671875 80.3125 L 93.0625 79.964844 Z M 93.453125 73.652344 " fill-opacity="1" fill-rule="nonzero"/></g></g></g><g clip-path="url(#da580d72d3)"><g clip-path="url(#d2e087d961)"><g clip-path="url(#f40093481d)"><path fill="#a6a6a6" d="M 95.890625 82.144531 L 101.5 82.492188 L 101.109375 88.804688 L 95.496094 88.457031 Z M 95.890625 82.144531 " fill-opacity="1" fill-rule="nonzero"/></g></g></g><g clip-path="url(#a5b850c45a)"><g clip-path="url(#7aceedb8f2)"><g clip-path="url(#affc24d817)"><path fill="#a6a6a6" d="M 100.039062 90.421875 L 105.652344 90.769531 L 105.257812 97.082031 L 99.648438 96.734375 Z M 100.039062 90.421875 " fill-opacity="1" fill-rule="nonzero"/></g></g></g><g clip-path="url(#b51917287b)"><g clip-path="url(#e631739375)"><g clip-path="url(#0788d7b1be)"><path fill="#a6a6a6" d="M 105.238281 98.988281 L 110.847656 99.339844 L 110.453125 105.652344 L 104.84375 105.300781 Z M 105.238281 98.988281 " fill-opacity="1" fill-rule="nonzero"/></g></g></g><g clip-path="url(#cfcfe9266e)"><g clip-path="url(#734d97a2da)"><g clip-path="url(#6710660b52)"><path fill="#a6a6a6" d="M 85.777344 76.851562 L 91.382812 77.285156 L 90.894531 83.59375 L 85.289062 83.15625 Z M 85.777344 76.851562 " fill-opacity="1" fill-rule="nonzero"/></g></g></g><g clip-path="url(#0e32d15858)"><g clip-path="url(#3be56902f2)"><g clip-path="url(#27f24fe6e0)"><path fill="#a6a6a6" d="M 88.085938 85.378906 L 93.6875 85.816406 L 93.199219 92.121094 L 87.59375 91.6875 Z M 88.085938 85.378906 " fill-opacity="1" fill-rule="nonzero"/></g></g></g><g clip-path="url(#738783748b)"><g clip-path="url(#88dd00d836)"><g clip-path="url(#90e02cf1e7)"><path fill="#a6a6a6" d="M 92.109375 93.71875 L 97.714844 94.15625 L 97.226562 100.460938 L 91.621094 100.027344 Z M 92.109375 93.71875 " fill-opacity="1" fill-rule="nonzero"/></g></g></g><g clip-path="url(#8479339380)"><g clip-path="url(#cf8947133a)"><g clip-path="url(#568e05c808)"><path fill="#a6a6a6" d="M 97.171875 102.367188 L 102.777344 102.800781 L 102.289062 109.105469 L 96.683594 108.671875 Z M 97.171875 102.367188 " fill-opacity="1" fill-rule="nonzero"/></g></g></g><g clip-path="url(#7673e879e3)"><g clip-path="url(#bd8bfd815e)"><g clip-path="url(#ccadc684e3)"><path fill="#d9d9d9" d="M 134.300781 33.234375 L 168.695312 62.214844 L 132.019531 105.746094 L 97.625 76.765625 Z M 134.300781 33.234375 " fill-opacity="1" fill-rule="nonzero"/></g></g></g><g clip-path="url(#001934983e)"><g clip-path="url(#5e063352ec)"><path fill="#ffdcb3" d="M 56.179688 62.789062 L 101.15625 62.789062 L 101.15625 107.765625 L 56.179688 107.765625 Z M 56.179688 62.789062 " fill-opacity="1" fill-rule="nonzero"/></g></g><g clip-path="url(#36d279428d)"><g clip-path="url(#1c8fa309a7)"><path fill="#ffffff" d="M 65.371094 75.398438 L 74.316406 75.398438 L 74.316406 84.347656 L 65.371094 84.347656 Z M 65.371094 75.398438 " fill-opacity="1" fill-rule="nonzero"/></g></g><g clip-path="url(#776f04b75d)"><g clip-path="url(#cc0da94db7)"><path fill="#ffffff" d="M 86.292969 75.398438 L 95.242188 75.398438 L 95.242188 84.347656 L 86.292969 84.347656 Z M 86.292969 75.398438 " fill-opacity="1" fill-rule="nonzero"/></g></g><g clip-path="url(#69567dd3cd)"><g clip-path="url(#fe0c501eb3)"><path fill="#5271ff" d="M 68.882812 78.945312 L 74.285156 78.945312 L 74.285156 84.347656 L 68.882812 84.347656 Z M 68.882812 78.945312 " fill-opacity="1" fill-rule="nonzero"/></g></g><g clip-path="url(#18e0dbc729)"><g clip-path="url(#da49e8f39e)"><path fill="#5271ff" d="M 89.835938 78.945312 L 95.242188 78.945312 L 95.242188 84.347656 L 89.835938 84.347656 Z M 89.835938 78.945312 " fill-opacity="1" fill-rule="nonzero"/></g></g><g clip-path="url(#b9982e24b5)"><g clip-path="url(#d88b4a8b62)"><path fill="#000000" d="M 72.332031 89.402344 L 86.75 89.402344 L 86.75 103.820312 L 72.332031 103.820312 Z M 72.332031 89.402344 " fill-opacity="1" fill-rule="nonzero"/></g></g><g clip-path="url(#9647bfd389)"><g clip-path="url(#62b5d38e27)"><g clip-path="url(#2beb033176)"><path fill="#ffffff" d="M 76.546875 98.550781 L 75.683594 76.082031 L 82.707031 75.8125 L 83.570312 98.28125 Z M 76.546875 98.550781 " fill-opacity="1" fill-rule="nonzero"/></g></g></g><g clip-path="url(#025b176e0f)"><g clip-path="url(#b0dfedf415)"><path fill="#ffdcb3" d="M 75.683594 73.074219 L 83.414062 73.074219 L 83.414062 91.347656 L 75.683594 91.347656 Z M 75.683594 73.074219 " fill-opacity="1" fill-rule="nonzero"/></g></g><g clip-path="url(#d64ed0b143)"><g clip-path="url(#d1bd74acf0)"><path fill="#ff1616" d="M 74.984375 100.757812 L 84.089844 100.757812 L 84.089844 106.949219 L 74.984375 106.949219 Z M 74.984375 100.757812 " fill-opacity="1" fill-rule="nonzero"/></g></g><g clip-path="url(#82e7a2bb63)"><g clip-path="url(#429f57a148)"><path fill="#ffdcb3" d="M 68.882812 103.019531 L 88.316406 103.019531 L 88.316406 107.554688 L 68.882812 107.554688 Z M 68.882812 103.019531 " fill-opacity="1" fill-rule="nonzero"/></g></g><g clip-path="url(#0490373043)"><g clip-path="url(#51208eaa0a)"><path fill="#a6a6a6" d="M 99.996094 69.949219 L 105.621094 69.949219 L 105.621094 76.273438 L 99.996094 76.273438 Z M 99.996094 69.949219 " fill-opacity="1" fill-rule="nonzero"/></g></g><g clip-path="url(#06c14d08f1)"><g clip-path="url(#2868b6db55)"><path fill="#a6a6a6" d="M 102.957031 78.273438 L 108.578125 78.273438 L 108.578125 84.601562 L 102.957031 84.601562 Z M 102.957031 78.273438 " fill-opacity="1" fill-rule="nonzero"/></g></g><g clip-path="url(#772eab109f)"><g clip-path="url(#316b131dcf)"><path fill="#a6a6a6" d="M 107.613281 86.277344 L 113.234375 86.277344 L 113.234375 92.601562 L 107.613281 92.601562 Z M 107.613281 86.277344 " fill-opacity="1" fill-rule="nonzero"/></g></g><g clip-path="url(#02ff9a42e7)"><g clip-path="url(#6985044140)"><path fill="#a6a6a6" d="M 113.328125 94.507812 L 118.953125 94.507812 L 118.953125 100.832031 L 113.328125 100.832031 Z M 113.328125 94.507812 " fill-opacity="1" fill-rule="nonzero"/></g></g><g fill="#ffffff" fill-opacity="1"><g transform="translate(121.162441, 59.582545)"><g><path d="M 2.984375 2.046875 L 1.6875 -1.28125 L 2.03125 -1.625 L 5.5 -0.46875 L 4.9375 0.09375 L 2.609375 -0.765625 L 3.546875 1.484375 Z M 2.984375 2.046875 "/></g></g><g transform="translate(123.884775, 62.304879)"><g><path d="M 2.953125 1.421875 C 2.691406 1.679688 2.398438 1.789062 2.078125 1.75 C 1.753906 1.707031 1.40625 1.5 1.03125 1.125 C 0.84375 0.9375 0.691406 0.757812 0.578125 0.59375 C 0.472656 0.4375 0.382812 0.28125 0.3125 0.125 L 0.921875 -0.484375 C 0.984375 -0.273438 1.078125 -0.0664062 1.203125 0.140625 C 1.328125 0.347656 1.453125 0.515625 1.578125 0.640625 C 1.828125 0.890625 2.03125 0.9375 2.1875 0.78125 C 2.238281 0.726562 2.265625 0.664062 2.265625 0.59375 C 2.273438 0.53125 2.257812 0.4375 2.21875 0.3125 C 2.175781 0.1875 2.113281 0.0195312 2.03125 -0.1875 C 1.914062 -0.46875 1.847656 -0.691406 1.828125 -0.859375 C 1.804688 -1.023438 1.816406 -1.175781 1.859375 -1.3125 C 1.898438 -1.445312 1.988281 -1.582031 2.125 -1.71875 C 2.363281 -1.957031 2.632812 -2.046875 2.9375 -1.984375 C 3.25 -1.929688 3.570312 -1.738281 3.90625 -1.40625 C 4.21875 -1.09375 4.457031 -0.71875 4.625 -0.28125 L 3.875 0 C 3.800781 -0.175781 3.726562 -0.335938 3.65625 -0.484375 C 3.582031 -0.628906 3.484375 -0.765625 3.359375 -0.890625 C 3.148438 -1.097656 2.988281 -1.144531 2.875 -1.03125 C 2.8125 -0.96875 2.789062 -0.878906 2.8125 -0.765625 C 2.832031 -0.648438 2.910156 -0.429688 3.046875 -0.109375 C 3.160156 0.171875 3.234375 0.394531 3.265625 0.5625 C 3.296875 0.726562 3.285156 0.878906 3.234375 1.015625 C 3.179688 1.148438 3.085938 1.285156 2.953125 1.421875 Z M 2.953125 1.421875 "/></g></g><g transform="translate(126.255464, 64.675568)"><g><path d="M 1.390625 1.484375 C 0.566406 0.660156 0.601562 -0.195312 1.5 -1.09375 C 1.9375 -1.53125 2.382812 -1.753906 2.84375 -1.765625 C 3.300781 -1.773438 3.734375 -1.578125 4.140625 -1.171875 C 4.441406 -0.867188 4.65625 -0.53125 4.78125 -0.15625 L 4.015625 0.171875 C 3.953125 0.00390625 3.882812 -0.132812 3.8125 -0.25 C 3.75 -0.375 3.664062 -0.488281 3.5625 -0.59375 C 3.195312 -0.957031 2.753906 -0.878906 2.234375 -0.359375 C 1.722656 0.148438 1.648438 0.585938 2.015625 0.953125 C 2.160156 1.097656 2.304688 1.207031 2.453125 1.28125 C 2.609375 1.363281 2.78125 1.425781 2.96875 1.46875 L 2.359375 2.078125 C 2.179688 2.046875 2.019531 1.984375 1.875 1.890625 C 1.726562 1.796875 1.566406 1.660156 1.390625 1.484375 Z M 1.390625 1.484375 "/></g></g><g transform="translate(128.70766, 67.127765)"><g><path d="M 4.484375 -0.828125 C 4.578125 -0.734375 4.644531 -0.644531 4.6875 -0.5625 L 3.984375 0.046875 C 3.929688 -0.0234375 3.863281 -0.101562 3.78125 -0.1875 C 3.550781 -0.414062 3.316406 -0.535156 3.078125 -0.546875 C 2.835938 -0.554688 2.613281 -0.457031 2.40625 -0.25 L 1.078125 1.078125 L 0.375 0.375 L 2.984375 -2.234375 L 3.515625 -1.703125 L 3.1875 -1.15625 L 3.21875 -1.125 C 3.445312 -1.1875 3.671875 -1.191406 3.890625 -1.140625 C 4.117188 -1.097656 4.316406 -0.992188 4.484375 -0.828125 Z M 4.484375 -0.828125 "/></g></g><g transform="translate(130.873418, 69.293522)"><g><path d="M 3.625 -2.9375 C 3.851562 -3.164062 4.097656 -3.148438 4.359375 -2.890625 C 4.609375 -2.640625 4.617188 -2.398438 4.390625 -2.171875 C 4.273438 -2.054688 4.15625 -2 4.03125 -2 C 3.90625 -2 3.78125 -2.0625 3.65625 -2.1875 C 3.394531 -2.445312 3.382812 -2.695312 3.625 -2.9375 Z M 1.078125 1.078125 L 0.375 0.375 L 2.984375 -2.234375 L 3.6875 -1.53125 Z M 1.078125 1.078125 "/></g></g><g transform="translate(132.3289, 70.749004)"><g><path d="M 1.75 1.84375 C 1.445312 1.539062 1.316406 1.191406 1.359375 0.796875 L 1.328125 0.765625 C 1.128906 1.003906 1.015625 1.140625 0.984375 1.171875 L -0.078125 2.234375 L -0.78125 1.53125 L 2.984375 -2.234375 L 3.5625 -1.65625 L 3.3125 -1.21875 L 3.34375 -1.1875 C 3.78125 -1.269531 4.160156 -1.148438 4.484375 -0.828125 C 4.785156 -0.523438 4.90625 -0.164062 4.84375 0.25 C 4.78125 0.664062 4.535156 1.085938 4.109375 1.515625 C 3.835938 1.785156 3.554688 1.976562 3.265625 2.09375 C 2.984375 2.21875 2.710938 2.257812 2.453125 2.21875 C 2.191406 2.175781 1.957031 2.050781 1.75 1.84375 Z M 3.6875 -0.5 C 3.507812 -0.675781 3.320312 -0.742188 3.125 -0.703125 C 2.9375 -0.671875 2.71875 -0.539062 2.46875 -0.3125 L 2.390625 -0.234375 C 2.109375 0.046875 1.953125 0.289062 1.921875 0.5 C 1.890625 0.707031 1.960938 0.898438 2.140625 1.078125 C 2.453125 1.390625 2.867188 1.285156 3.390625 0.765625 C 3.648438 0.503906 3.804688 0.269531 3.859375 0.0625 C 3.910156 -0.144531 3.851562 -0.332031 3.6875 -0.5 Z M 3.6875 -0.5 "/></g></g><g transform="translate(135.346988, 73.767092)"><g><path d="M 1.984375 0.953125 C 2.109375 1.078125 2.285156 1.203125 2.515625 1.328125 L 2 1.84375 C 1.738281 1.75 1.476562 1.570312 1.21875 1.3125 C 0.9375 1.03125 0.800781 0.75 0.8125 0.46875 C 0.832031 0.195312 0.984375 -0.078125 1.265625 -0.359375 L 2.53125 -1.625 L 2.1875 -1.96875 L 2.484375 -2.265625 L 3.109375 -2.109375 L 3.859375 -2.453125 L 4.3125 -2 L 3.765625 -1.453125 L 4.5 -0.71875 L 3.96875 -0.1875 L 3.234375 -0.921875 L 1.96875 0.34375 C 1.863281 0.445312 1.816406 0.550781 1.828125 0.65625 C 1.835938 0.757812 1.890625 0.859375 1.984375 0.953125 Z M 1.984375 0.953125 "/></g></g><g transform="translate(137.417266, 75.83737)"><g><path d="M 5.34375 -1.46875 L 0.671875 0.671875 L 0.03125 0.03125 L 4.703125 -2.109375 Z M 5.34375 -1.46875 "/></g></g><g transform="translate(139.387406, 77.80751)"><g><path d="M 1.234375 -0.828125 L 3.484375 0.109375 L 2.625 -2.21875 L 3.1875 -2.78125 L 4.34375 0.6875 L 4 1.03125 L 0.671875 -0.265625 Z M 1.234375 -0.828125 "/></g></g></g><g clip-path="url(#1b20fcba60)"><g clip-path="url(#2a1ddd44bf)"><g clip-path="url(#13249e6911)"><path fill="#5271ff" d="M 134.96875 38.179688 L 163.988281 62.628906 L 139.539062 91.648438 L 110.515625 67.199219 Z M 134.96875 38.179688 " fill-opacity="1" fill-rule="nonzero"/></g></g></g><g clip-path="url(#86ab846333)"><g clip-path="url(#235f3190e6)"><g clip-path="url(#68f10872d2)"><path fill="#5271ff" d="M 104.15625 72.503906 L 116.367188 61.914062 L 140.773438 90.046875 L 128.5625 100.640625 Z M 104.15625 72.503906 " fill-opacity="1" fill-rule="nonzero"/></g></g></g><g clip-path="url(#efe1f2698d)"><g clip-path="url(#2fc2d60c10)"><g clip-path="url(#2700728078)"><path fill="#5271ff" d="M 110.476562 68.054688 L 117.355469 59.160156 L 131.25 69.90625 L 124.371094 78.800781 Z M 110.476562 68.054688 " fill-opacity="1" fill-rule="nonzero"/></g></g></g><g fill="#ffffff" fill-opacity="1"><g transform="translate(121.839061, 57.481957)"><g><path d="M 3.15625 2.15625 L 1.796875 -1.359375 L 2.15625 -1.71875 L 5.8125 -0.5 L 5.21875 0.09375 L 2.75 -0.8125 L 3.734375 1.578125 Z M 3.15625 2.15625 "/></g></g><g transform="translate(124.715653, 60.358548)"><g><path d="M 3.125 1.5 C 2.84375 1.78125 2.53125 1.894531 2.1875 1.84375 C 1.84375 1.789062 1.476562 1.570312 1.09375 1.1875 C 0.894531 0.988281 0.738281 0.804688 0.625 0.640625 C 0.507812 0.472656 0.414062 0.300781 0.34375 0.125 L 0.96875 -0.5 C 1.03125 -0.289062 1.128906 -0.078125 1.265625 0.140625 C 1.398438 0.359375 1.53125 0.53125 1.65625 0.65625 C 1.925781 0.925781 2.140625 0.984375 2.296875 0.828125 C 2.359375 0.765625 2.390625 0.695312 2.390625 0.625 C 2.390625 0.550781 2.367188 0.445312 2.328125 0.3125 C 2.285156 0.175781 2.222656 0.00390625 2.140625 -0.203125 C 2.015625 -0.492188 1.941406 -0.726562 1.921875 -0.90625 C 1.898438 -1.082031 1.914062 -1.242188 1.96875 -1.390625 C 2.019531 -1.535156 2.113281 -1.675781 2.25 -1.8125 C 2.488281 -2.050781 2.773438 -2.144531 3.109375 -2.09375 C 3.441406 -2.039062 3.78125 -1.84375 4.125 -1.5 C 4.457031 -1.164062 4.703125 -0.765625 4.859375 -0.296875 L 4.109375 0.015625 C 4.015625 -0.179688 3.925781 -0.359375 3.84375 -0.515625 C 3.769531 -0.679688 3.671875 -0.828125 3.546875 -0.953125 C 3.328125 -1.171875 3.15625 -1.21875 3.03125 -1.09375 C 2.96875 -1.03125 2.945312 -0.9375 2.96875 -0.8125 C 3 -0.695312 3.082031 -0.46875 3.21875 -0.125 C 3.34375 0.164062 3.414062 0.398438 3.4375 0.578125 C 3.46875 0.765625 3.457031 0.929688 3.40625 1.078125 C 3.351562 1.222656 3.257812 1.363281 3.125 1.5 Z M 3.125 1.5 "/></g></g><g transform="translate(127.220674, 62.86357)"><g><path d="M 1.46875 1.5625 C 0.601562 0.695312 0.640625 -0.203125 1.578125 -1.140625 C 2.046875 -1.609375 2.519531 -1.847656 3 -1.859375 C 3.488281 -1.878906 3.953125 -1.671875 4.390625 -1.234375 C 4.710938 -0.910156 4.9375 -0.5625 5.0625 -0.1875 L 4.234375 0.171875 C 4.171875 0.00390625 4.101562 -0.140625 4.03125 -0.265625 C 3.96875 -0.398438 3.882812 -0.519531 3.78125 -0.625 C 3.394531 -1.007812 2.925781 -0.925781 2.375 -0.375 C 1.832031 0.164062 1.753906 0.628906 2.140625 1.015625 C 2.285156 1.160156 2.4375 1.273438 2.59375 1.359375 C 2.757812 1.453125 2.941406 1.515625 3.140625 1.546875 L 2.5 2.1875 C 2.3125 2.144531 2.140625 2.078125 1.984375 1.984375 C 1.828125 1.890625 1.65625 1.75 1.46875 1.5625 Z M 1.46875 1.5625 "/></g></g><g transform="translate(129.811822, 65.454718)"><g><path d="M 4.75 -0.875 C 4.84375 -0.78125 4.910156 -0.691406 4.953125 -0.609375 L 4.203125 0.046875 C 4.148438 -0.0234375 4.082031 -0.101562 4 -0.1875 C 3.757812 -0.425781 3.515625 -0.550781 3.265625 -0.5625 C 3.015625 -0.570312 2.78125 -0.46875 2.5625 -0.25 L 1.15625 1.15625 L 0.390625 0.390625 L 3.140625 -2.359375 L 3.71875 -1.78125 L 3.359375 -1.203125 L 3.390625 -1.171875 C 3.628906 -1.242188 3.867188 -1.253906 4.109375 -1.203125 C 4.359375 -1.160156 4.570312 -1.050781 4.75 -0.875 Z M 4.75 -0.875 "/></g></g><g transform="translate(132.1003, 67.743196)"><g><path d="M 3.8125 -3.09375 C 4.0625 -3.34375 4.320312 -3.332031 4.59375 -3.0625 C 4.875 -2.78125 4.890625 -2.515625 4.640625 -2.265625 C 4.523438 -2.148438 4.398438 -2.097656 4.265625 -2.109375 C 4.128906 -2.117188 3.992188 -2.191406 3.859375 -2.328125 C 3.585938 -2.597656 3.570312 -2.851562 3.8125 -3.09375 Z M 1.15625 1.15625 L 0.390625 0.390625 L 3.140625 -2.359375 L 3.90625 -1.59375 Z M 1.15625 1.15625 "/></g></g><g transform="translate(133.638255, 69.281151)"><g><path d="M 1.859375 1.953125 C 1.535156 1.628906 1.398438 1.265625 1.453125 0.859375 L 1.40625 0.8125 C 1.207031 1.070312 1.09375 1.21875 1.0625 1.25 L -0.0625 2.375 L -0.828125 1.609375 L 3.140625 -2.359375 L 3.75 -1.75 L 3.5 -1.28125 L 3.546875 -1.234375 C 3.992188 -1.347656 4.390625 -1.234375 4.734375 -0.890625 C 5.054688 -0.566406 5.179688 -0.1875 5.109375 0.25 C 5.046875 0.695312 4.789062 1.144531 4.34375 1.59375 C 4.050781 1.882812 3.75 2.09375 3.4375 2.21875 C 3.132812 2.351562 2.847656 2.394531 2.578125 2.34375 C 2.316406 2.300781 2.078125 2.171875 1.859375 1.953125 Z M 3.875 -0.53125 C 3.695312 -0.707031 3.507812 -0.78125 3.3125 -0.75 C 3.113281 -0.71875 2.882812 -0.570312 2.625 -0.3125 L 2.53125 -0.21875 C 2.238281 0.0703125 2.070312 0.320312 2.03125 0.53125 C 1.988281 0.738281 2.0625 0.9375 2.25 1.125 C 2.59375 1.46875 3.039062 1.363281 3.59375 0.8125 C 3.863281 0.539062 4.019531 0.289062 4.0625 0.0625 C 4.113281 -0.15625 4.050781 -0.351562 3.875 -0.53125 Z M 3.875 -0.53125 "/></g></g><g transform="translate(136.82736, 72.470256)"><g><path d="M 2.09375 1 C 2.226562 1.132812 2.410156 1.265625 2.640625 1.390625 L 2.09375 1.9375 C 1.832031 1.84375 1.566406 1.660156 1.296875 1.390625 C 0.992188 1.085938 0.847656 0.789062 0.859375 0.5 C 0.867188 0.207031 1.023438 -0.0859375 1.328125 -0.390625 L 2.65625 -1.71875 L 2.296875 -2.078125 L 2.625 -2.40625 L 3.28125 -2.21875 L 4.078125 -2.609375 L 4.5625 -2.125 L 3.96875 -1.53125 L 4.75 -0.75 L 4.1875 -0.1875 L 3.40625 -0.96875 L 2.078125 0.359375 C 1.972656 0.460938 1.925781 0.570312 1.9375 0.6875 C 1.945312 0.800781 2 0.90625 2.09375 1 Z M 2.09375 1 "/></g></g><g transform="translate(139.014948, 74.657844)"><g><path d="M 5.671875 -1.546875 L 0.71875 0.71875 L 0.03125 0.03125 L 4.984375 -2.234375 Z M 5.671875 -1.546875 "/></g></g><g transform="translate(141.096724, 76.73962)"><g><path d="M 1.296875 -0.859375 L 3.6875 0.125 L 2.78125 -2.34375 L 3.375 -2.9375 L 4.59375 0.71875 L 4.234375 1.078125 L 0.71875 -0.28125 Z M 1.296875 -0.859375 "/></g></g></g></svg>